<svg width="28" height="28" viewBox="0 0 28 28" fill="none" xmlns="http://www.w3.org/2000/svg">
<path d="M8.16667 9.33334H19.8333M8.16667 14H12.8333M14 23.3333L9.33333 18.6667H5.83333C5.21449 18.6667 4.621 18.4208 4.18342 17.9833C3.74583 17.5457 3.5 16.9522 3.5 16.3333V7.00001C3.5 6.38117 3.74583 5.78767 4.18342 5.35009C4.621 4.9125 5.21449 4.66667 5.83333 4.66667H22.1667C22.7855 4.66667 23.379 4.9125 23.8166 5.35009C24.2542 5.78767 24.5 6.38117 24.5 7.00001V16.3333C24.5 16.9522 24.2542 17.5457 23.8166 17.9833C23.379 18.4208 22.7855 18.6667 22.1667 18.6667H18.6667L14 23.3333Z" stroke="#00FF9D" stroke-width="2" stroke-linecap="round" stroke-linejoin="round"/>
</svg>
