<svg width="28" height="28" viewBox="0 0 28 28" fill="none" xmlns="http://www.w3.org/2000/svg">
<path d="M5.83333 9.33332H22.1667M5.83333 9.33332C5.21449 9.33332 4.621 9.08749 4.18342 8.64991C3.74583 8.21232 3.5 7.61883 3.5 6.99999C3.5 6.38115 3.74583 5.78766 4.18342 5.35007C4.621 4.91249 5.21449 4.66666 5.83333 4.66666H22.1667C22.7855 4.66666 23.379 4.91249 23.8166 5.35007C24.2542 5.78766 24.5 6.38115 24.5 6.99999C24.5 7.61883 24.2542 8.21232 23.8166 8.64991C23.379 9.08749 22.7855 9.33332 22.1667 9.33332M5.83333 9.33332V21C5.83333 21.6188 6.07917 22.2123 6.51675 22.6499C6.95434 23.0875 7.54783 23.3333 8.16667 23.3333H19.8333C20.4522 23.3333 21.0457 23.0875 21.4832 22.6499C21.9208 22.2123 22.1667 21.6188 22.1667 21V9.33332M11.6667 14H16.3333" stroke="#00FF9D" stroke-width="2" stroke-linecap="round" stroke-linejoin="round"/>
</svg>
