<svg width="28" height="28" viewBox="0 0 28 28" fill="none" xmlns="http://www.w3.org/2000/svg">
<path d="M24.5 15.4642C21.1639 16.8131 17.5985 17.5044 14 17.5C10.2865 17.5 6.74333 16.7767 3.5 15.4642M18.6667 7.00001V4.66668C18.6667 4.04784 18.4208 3.45435 17.9832 3.01676C17.5457 2.57918 16.9522 2.33334 16.3333 2.33334H11.6667C11.0478 2.33334 10.4543 2.57918 10.0168 3.01676C9.57917 3.45435 9.33333 4.04784 9.33333 4.66668V7.00001M14 14H14.0117M5.83333 23.3333H22.1667C22.7855 23.3333 23.379 23.0875 23.8166 22.6499C24.2542 22.2123 24.5 21.6188 24.5 21V9.33334C24.5 8.7145 24.2542 8.12101 23.8166 7.68343C23.379 7.24584 22.7855 7.00001 22.1667 7.00001H5.83333C5.21449 7.00001 4.621 7.24584 4.18342 7.68343C3.74583 8.12101 3.5 8.7145 3.5 9.33334V21C3.5 21.6188 3.74583 22.2123 4.18342 22.6499C4.621 23.0875 5.21449 23.3333 5.83333 23.3333Z" stroke="#00FF9D" stroke-width="2" stroke-linecap="round" stroke-linejoin="round"/>
</svg>
