<svg width="28" height="28" viewBox="0 0 28 28" fill="none" xmlns="http://www.w3.org/2000/svg">
<path d="M10.5 22.1667V15.1667C10.5 14.5478 10.2542 13.9543 9.81658 13.5168C9.379 13.0792 8.7855 12.8333 8.16667 12.8333H5.83333C5.21449 12.8333 4.621 13.0792 4.18342 13.5168C3.74583 13.9543 3.5 14.5478 3.5 15.1667V22.1667C3.5 22.7855 3.74583 23.379 4.18342 23.8166C4.621 24.2542 5.21449 24.5 5.83333 24.5H8.16667C8.7855 24.5 9.379 24.2542 9.81658 23.8166C10.2542 23.379 10.5 22.7855 10.5 22.1667ZM10.5 22.1667V10.5C10.5 9.88116 10.7458 9.28767 11.1834 8.85008C11.621 8.4125 12.2145 8.16667 12.8333 8.16667H15.1667C15.7855 8.16667 16.379 8.4125 16.8166 8.85008C17.2542 9.28767 17.5 9.88116 17.5 10.5V22.1667M10.5 22.1667C10.5 22.7855 10.7458 23.379 11.1834 23.8166C11.621 24.2542 12.2145 24.5 12.8333 24.5H15.1667C15.7855 24.5 16.379 24.2542 16.8166 23.8166C17.2542 23.379 17.5 22.7855 17.5 22.1667M17.5 22.1667V5.83333C17.5 5.21449 17.7458 4.621 18.1834 4.18342C18.621 3.74583 19.2145 3.5 19.8333 3.5H22.1667C22.7855 3.5 23.379 3.74583 23.8166 4.18342C24.2542 4.621 24.5 5.21449 24.5 5.83333V22.1667C24.5 22.7855 24.2542 23.379 23.8166 23.8166C23.379 24.2542 22.7855 24.5 22.1667 24.5H19.8333C19.2145 24.5 18.621 24.2542 18.1834 23.8166C17.7458 23.379 17.5 22.7855 17.5 22.1667Z" stroke="#00FF9D" stroke-width="2" stroke-linecap="round" stroke-linejoin="round"/>
</svg>
