<svg width="28" height="28" viewBox="0 0 28 28" fill="none" xmlns="http://www.w3.org/2000/svg">
<path d="M10.5002 5.83333H8.16683C7.54799 5.83333 6.9545 6.07917 6.51691 6.51675C6.07933 6.95434 5.8335 7.54783 5.8335 8.16667V22.1667C5.8335 22.7855 6.07933 23.379 6.51691 23.8166C6.9545 24.2542 7.54799 24.5 8.16683 24.5H19.8335C20.4523 24.5 21.0458 24.2542 21.4834 23.8166C21.921 23.379 22.1668 22.7855 22.1668 22.1667V8.16667C22.1668 7.54783 21.921 6.95434 21.4834 6.51675C21.0458 6.07917 20.4523 5.83333 19.8335 5.83333H17.5002M10.5002 5.83333C10.5002 6.45217 10.746 7.04566 11.1836 7.48325C11.6212 7.92083 12.2147 8.16667 12.8335 8.16667H15.1668C15.7857 8.16667 16.3792 7.92083 16.8167 7.48325C17.2543 7.04566 17.5002 6.45217 17.5002 5.83333M10.5002 5.83333C10.5002 5.21449 10.746 4.621 11.1836 4.18342C11.6212 3.74583 12.2147 3.5 12.8335 3.5H15.1668C15.7857 3.5 16.3792 3.74583 16.8167 4.18342C17.2543 4.621 17.5002 5.21449 17.5002 5.83333M10.5002 16.3333L12.8335 18.6667L17.5002 14" stroke="#00FF9D" stroke-width="2" stroke-linecap="round" stroke-linejoin="round"/>
</svg>
