<svg width="32" height="32" viewBox="0 0 32 32" fill="none" xmlns="http://www.w3.org/2000/svg">
<path d="M25.3335 9.33333L24.1775 25.5227C24.1296 26.1954 23.8286 26.8251 23.335 27.2848C22.8414 27.7444 22.192 28 21.5175 28H10.4828C9.80835 28 9.15892 27.7444 8.66534 27.2848C8.17177 26.8251 7.87072 26.1954 7.82283 25.5227L6.66683 9.33333M13.3335 14.6667V22.6667M18.6668 14.6667V22.6667M20.0002 9.33333V5.33333C20.0002 4.97971 19.8597 4.64057 19.6096 4.39052C19.3596 4.14048 19.0205 4 18.6668 4H13.3335C12.9799 4 12.6407 4.14048 12.3907 4.39052C12.1406 4.64057 12.0002 4.97971 12.0002 5.33333V9.33333M5.3335 9.33333H26.6668" stroke="#00FF9D" stroke-width="2" stroke-linecap="round" stroke-linejoin="round"/>
</svg>
